<?xml version="1.0" encoding="UTF-8"?>
<svg id="Layer_1" data-name="Layer 1" xmlns="http://www.w3.org/2000/svg" viewBox="0 0 1628.57 830.23">
  <defs>
    <style>
      .cls-1 {
        fill: #214099;
      }

      .cls-1, .cls-2 {
        stroke-width: 0px;
      }

      .cls-2 {
        fill: #138241;
      }
    </style>
  </defs>
  <g>
    <path class="cls-1" d="M0,577.17h45.83l27.54,80.45c1.77,5.11,3.34,11.01,3.93,13.57.59-2.55,1.77-8.46,3.54-13.57l28.32-80.45h45.44v125.88h-32.06v-86.35l-29.9,86.35h-30.49l-30.49-86.35v86.35H0v-125.88Z"/>
    <path class="cls-1" d="M254.51,577.17h40.13l44.45,125.88h-33.44l-6.89-21.63h-48.38l-6.89,21.63h-33.44l44.45-125.88ZM291.88,658.01l-17.51-53.1-17.11,53.1h34.62Z"/>
    <path class="cls-1" d="M416.19,603.13h-31.67v-25.96h94.81v25.96h-31.67v99.92h-31.47v-99.92Z"/>
    <path class="cls-1" d="M472.84,652.7c0-26.16,10.62-51.73,50.35-51.73s50.35,25.57,50.35,51.73-10.82,52.12-50.55,52.12-50.15-26.16-50.15-52.12ZM522.99,679.05c15.93,0,21.05-10.22,21.05-26.35s-4.53-26.16-20.85-26.16-20.65,10.23-20.65,26.16,5.12,26.35,20.46,26.35Z"/>
    <path class="cls-1" d="M587.9,659.39v-56.65h30.68v57.63c0,13.57,2.75,19.28,16.72,19.28s17.5-6.29,17.5-20.07v-56.84h30.88v100.31h-13.96l-7.08-13.18c-5.51,7.87-15.74,14.95-35.4,14.95-33.24,0-39.34-18.68-39.34-45.43Z"/>
    <path class="cls-1" d="M703.55,602.74h13.96l6.29,14.35c6.29-10.23,15.93-18.29,36.98-15.93v26.75c-23.01-2.37-26.55,10.03-26.55,26.94v48.19h-30.68v-100.31Z"/>
    <path class="cls-1" d="M815.46,663.91c0-19.67,16.32-29.9,29.5-33.83l-22.82-22.62v-30.29h86.94v26.35h-52.52l38.36,43.28c.98-5.51,1.18-19.67,1.18-27.34h30.29c0,21.64-4.72,37.18-10.03,49.18l32.06,34.42h-36.39l-11.41-12.98c-9.44,9.05-22.62,14.76-36.78,14.76-34.62,0-48.38-19.28-48.38-40.91ZM863.26,678.47c5.9,0,13.96-1.38,19.28-6.1l-20.65-21.83c-10.23,1.57-15.15,7.08-15.15,13.77,0,8.26,4.72,14.16,16.52,14.16Z"/>
    <path class="cls-1" d="M1022.77,603.13h-31.67v-25.96h94.81v25.96h-31.67v99.92h-31.47v-99.92Z"/>
    <path class="cls-1" d="M1091.61,602.74h13.96l6.29,14.35c6.29-10.23,15.93-18.29,36.98-15.93v26.75c-23.01-2.37-26.55,10.03-26.55,26.94v48.19h-30.68v-100.31Z"/>
    <path class="cls-1" d="M1152.98,673.94c0-19.27,13.18-27.34,41.31-30.29l26.35-2.76c0-13.38-4.32-17.7-17.7-17.7-12.59,0-16.13,5.9-16.13,13.96h-29.9c0-21.44,8.65-36.19,45.24-36.19,42.88,0,49.17,19.27,49.17,45.24v56.85h-13.77l-7.28-15.74c-6.88,11.41-17.7,17.51-35.6,17.51-23.6,0-41.7-9.84-41.7-30.88ZM1200.97,683.19c13.77,0,19.87-8.06,19.67-22.22l-19.67,2.35c-12.19,1.38-15.93,4.72-15.93,9.44,0,6.1,4.72,10.43,15.93,10.43Z"/>
    <path class="cls-1" d="M1254.08,602.74h33.83l23.41,72.77,24.39-72.77h35.21l-42.29,100.31h-34.42l-40.13-100.31Z"/>
    <path class="cls-1" d="M1371.11,652.9c0-25.96,10.23-51.93,51.53-51.93,38.55,0,48.19,26.16,48.19,52.52,0,2.95,0,5.9-.39,8.85h-68.45c.2,13.38,6.49,20.85,19.86,20.85,11.21,0,15.93-4.72,17.11-10.43h32.06c-1.77,18.49-17.31,32.07-47.8,32.07-42.09,0-52.12-25.57-52.12-51.93ZM1438.97,641.88c0-10.43-4.92-18.49-17.9-18.49-12.19,0-18.88,5.9-18.88,18.49h36.78Z"/>
    <path class="cls-1" d="M1486.76,563.99h30.68v139.06h-30.68v-139.06Z"/>
    <path class="cls-1" d="M1532.19,666.86h29.7c0,9.44,4.33,15.74,19.67,15.74,12.2,0,16.52-4.32,16.52-9.44,0-15.54-64.32-4.52-64.32-39.93,0-17.9,13.18-32.26,46.22-32.26s45.04,12.39,45.04,36.19h-28.32c0-8.85-4.13-14.56-16.72-14.56-11.8,0-15.34,3.35-15.34,8.85,0,15.34,63.92,3.54,63.92,41.3,0,15.34-13.18,32.07-46.03,32.07-35.21,0-50.35-10.43-50.35-37.96Z"/>
  </g>
  <g>
    <path class="cls-2" d="M244.22,763.95c1.2.85,1.87,1.65,2.01,2.39.14.74-.16,1.62-.9,2.65l-20.1,30.53v20.09c0,.74-.08,1.42-.26,2.01-.17.6-.53,1.06-1.07,1.37-.54.31-1.38.47-2.52.47s-1.98-.16-2.52-.47c-.54-.31-.91-.78-1.11-1.41-.2-.63-.3-1.34-.3-2.14v-20.01l-20.18-30.27c-.68-1.03-.94-1.92-.77-2.69.17-.77.86-1.58,2.05-2.44.85-.57,1.58-.92,2.18-1.07.6-.14,1.15-.06,1.67.26.52.31,1,.87,1.45,1.66l17.45,27.37,17.53-27.37c.51-.8,1.01-1.34,1.49-1.62.48-.28,1.04-.38,1.67-.3.63.08,1.37.42,2.22.98Z"/>
    <path class="cls-2" d="M280.31,823.98c-4.05,0-7.85-.77-11.42-2.31s-6.7-3.69-9.41-6.46c-2.71-2.76-4.83-5.94-6.37-9.54-1.54-3.59-2.31-7.47-2.31-11.63s.74-8.2,2.22-11.93,3.55-7,6.2-9.79c2.65-2.8,5.72-4.99,9.19-6.59,3.48-1.59,7.18-2.39,11.12-2.39s7.94.77,11.5,2.31c3.56,1.54,6.67,3.7,9.32,6.46,2.65,2.77,4.75,6,6.29,9.71,1.54,3.71,2.31,7.67,2.31,11.89s-.76,8.05-2.26,11.68c-1.51,3.62-3.58,6.84-6.2,9.66-2.62,2.82-5.66,5.01-9.11,6.58s-7.14,2.35-11.07,2.35ZM279.8,816.2c2.96,0,5.74-.57,8.34-1.71,2.6-1.14,4.86-2.75,6.8-4.83,1.94-2.08,3.46-4.48,4.57-7.18s1.67-5.66,1.67-8.85-.55-5.97-1.67-8.68c-1.11-2.71-2.65-5.1-4.62-7.18-1.97-2.08-4.23-3.72-6.8-4.92-2.57-1.19-5.3-1.79-8.21-1.79s-5.64.6-8.21,1.79c-2.57,1.2-4.83,2.82-6.8,4.88-1.97,2.05-3.51,4.44-4.62,7.18-1.11,2.73-1.67,5.67-1.67,8.81s.55,5.99,1.67,8.72c1.11,2.74,2.65,5.13,4.62,7.18,1.97,2.05,4.22,3.67,6.76,4.83,2.54,1.17,5.26,1.75,8.17,1.75Z"/>
    <path class="cls-2" d="M341.54,823.64c-3.82,0-7.23-.67-10.22-2.01-2.99-1.34-5.53-3.22-7.61-5.64-2.08-2.42-3.66-5.3-4.75-8.64-1.08-3.33-1.62-6.97-1.62-10.9v-28.91c0-.8.1-1.48.3-2.05.2-.57.57-1.01,1.11-1.32.54-.31,1.38-.47,2.52-.47s2,.16,2.56.47c.57.31.94.76,1.11,1.32.17.57.26,1.28.26,2.14v28.82c0,3.82.63,7.18,1.88,10.09,1.25,2.9,3.1,5.2,5.56,6.88,2.45,1.68,5.5,2.52,9.15,2.52,3.42,0,6.36-.8,8.81-2.39,2.45-1.6,4.33-3.85,5.64-6.76s1.97-6.38,1.97-10.43v-29.34c0-.68.1-1.27.3-1.75.2-.48.58-.87,1.15-1.15.57-.28,1.42-.42,2.57-.42,1.08,0,1.89.16,2.44.47.54.31.9.76,1.07,1.32.17.57.25,1.28.25,2.14v28.99c0,3.99-.54,7.62-1.62,10.9-1.08,3.28-2.67,6.13-4.75,8.55-2.08,2.43-4.65,4.29-7.7,5.6s-6.51,1.96-10.39,1.96Z"/>
    <path class="cls-2" d="M382.42,823.38c-1.08,0-1.91-.16-2.48-.47-.57-.31-.93-.77-1.07-1.37s-.21-1.3-.21-2.09v-51.99c0-.74.1-1.39.3-1.92.2-.54.57-.98,1.11-1.33.54-.34,1.36-.51,2.44-.51h18.9c2.79,0,5.34.41,7.65,1.24s4.32,2.04,6.03,3.63c1.71,1.6,3.04,3.61,3.98,6.03s1.41,5.23,1.41,8.42c0,2-.31,4.06-.94,6.2s-1.58,4.15-2.86,6.03c-1.28,1.88-2.92,3.45-4.92,4.7-2,1.26-4.42,1.97-7.27,2.14h-18.13v17.44c0,.8-.1,1.48-.3,2.05-.2.57-.57,1.01-1.11,1.32-.54.31-1.38.47-2.52.47ZM386.36,794.56h16.94c1.31,0,2.54-.24,3.68-.72s2.14-1.21,2.99-2.18c.85-.97,1.54-2.17,2.05-3.59s.77-3.14.77-5.13c0-2.45-.44-4.53-1.33-6.24-.88-1.71-2.18-3.01-3.89-3.89-1.71-.88-3.82-1.32-6.33-1.32h-14.88v23.09ZM419.11,822.44c-1.2.8-2.21,1.05-3.04.77-.83-.29-1.61-.97-2.35-2.05l-13.68-21.89,8.47-1.28,11.8,18.81c.57.91.93,1.68,1.07,2.31.14.63.03,1.19-.34,1.71-.37.51-1.01,1.05-1.92,1.62Z"/>
    <path class="cls-2" d="M468.2,823.64c-1.66,0-3.27-.2-4.83-.59-1.57-.4-3.01-.91-4.32-1.54s-2.48-1.31-3.51-2.05c-1.02-.74-1.88-1.45-2.56-2.14-.63-.62-1.15-1.19-1.58-1.71s-.64-1-.64-1.45c0-.51.17-1.04.51-1.58s.71-1.01,1.11-1.42c.63-.62,1.15-1.04,1.58-1.24.43-.2.84-.3,1.24-.3.8,0,1.44.26,1.92.77.48.52,1.21,1.23,2.18,2.14.57.4,1.31.88,2.22,1.45.91.57,1.97,1.07,3.16,1.49,1.2.43,2.48.65,3.85.65,1.88,0,3.51-.35,4.88-1.03,1.37-.68,2.49-1.65,3.38-2.9.88-1.26,1.55-2.72,2.01-4.4.46-1.68.68-3.49.68-5.43v-34.12c0-.91.09-1.72.26-2.39.17-.68.56-1.21,1.15-1.58.6-.37,1.47-.55,2.61-.55,1.08,0,1.88.16,2.39.47s.85.77,1.02,1.37c.17.59.26,1.3.26,2.09v35.4c0,3.02-.41,5.79-1.24,8.3s-2.04,4.68-3.63,6.5c-1.6,1.82-3.58,3.25-5.95,4.27-2.37,1.03-5.09,1.54-8.16,1.54Z"/>
    <path class="cls-2" d="M525.59,823.98c-4.05,0-7.85-.77-11.42-2.31s-6.7-3.69-9.41-6.46c-2.71-2.76-4.83-5.94-6.37-9.54-1.54-3.59-2.31-7.47-2.31-11.63s.74-8.2,2.22-11.93,3.55-7,6.2-9.79c2.65-2.8,5.72-4.99,9.19-6.59,3.48-1.59,7.18-2.39,11.12-2.39s7.94.77,11.5,2.31c3.56,1.54,6.67,3.7,9.32,6.46,2.65,2.77,4.75,6,6.29,9.71,1.54,3.71,2.31,7.67,2.31,11.89s-.76,8.05-2.26,11.68c-1.51,3.62-3.58,6.84-6.2,9.66-2.62,2.82-5.66,5.01-9.11,6.58s-7.14,2.35-11.07,2.35ZM525.07,816.2c2.96,0,5.74-.57,8.34-1.71,2.6-1.14,4.86-2.75,6.8-4.83,1.94-2.08,3.46-4.48,4.57-7.18s1.67-5.66,1.67-8.85-.55-5.97-1.67-8.68c-1.11-2.71-2.65-5.1-4.62-7.18-1.97-2.08-4.23-3.72-6.8-4.92-2.57-1.19-5.3-1.79-8.21-1.79s-5.64.6-8.21,1.79c-2.57,1.2-4.83,2.82-6.8,4.88-1.97,2.05-3.51,4.44-4.62,7.18-1.11,2.73-1.67,5.67-1.67,8.81s.55,5.99,1.67,8.72c1.11,2.74,2.65,5.13,4.62,7.18,1.97,2.05,4.22,3.67,6.76,4.83,2.54,1.17,5.26,1.75,8.17,1.75Z"/>
    <path class="cls-2" d="M586.82,823.64c-3.82,0-7.23-.67-10.22-2.01-2.99-1.34-5.53-3.22-7.61-5.64-2.08-2.42-3.66-5.3-4.75-8.64-1.08-3.33-1.62-6.97-1.62-10.9v-28.91c0-.8.1-1.48.3-2.05.2-.57.57-1.01,1.11-1.32.54-.31,1.38-.47,2.52-.47s2,.16,2.56.47c.57.31.94.76,1.11,1.32.17.57.26,1.28.26,2.14v28.82c0,3.82.63,7.18,1.88,10.09,1.25,2.9,3.1,5.2,5.56,6.88,2.45,1.68,5.5,2.52,9.15,2.52,3.42,0,6.36-.8,8.81-2.39,2.45-1.6,4.33-3.85,5.64-6.76s1.97-6.38,1.97-10.43v-29.34c0-.68.1-1.27.3-1.75.2-.48.58-.87,1.15-1.15.57-.28,1.42-.42,2.57-.42,1.08,0,1.89.16,2.44.47.54.31.9.76,1.07,1.32.17.57.25,1.28.25,2.14v28.99c0,3.99-.54,7.62-1.62,10.9-1.08,3.28-2.67,6.13-4.75,8.55-2.08,2.43-4.65,4.29-7.7,5.6s-6.51,1.96-10.39,1.96Z"/>
    <path class="cls-2" d="M627.7,823.38c-1.08,0-1.91-.16-2.48-.47-.57-.31-.93-.77-1.07-1.37s-.21-1.3-.21-2.09v-51.99c0-.74.1-1.39.3-1.92.2-.54.57-.98,1.11-1.33.54-.34,1.36-.51,2.44-.51h18.9c2.79,0,5.34.41,7.65,1.24s4.32,2.04,6.03,3.63c1.71,1.6,3.04,3.61,3.98,6.03s1.41,5.23,1.41,8.42c0,2-.31,4.06-.94,6.2s-1.58,4.15-2.86,6.03c-1.28,1.88-2.92,3.45-4.92,4.7-2,1.26-4.42,1.97-7.27,2.14h-18.13v17.44c0,.8-.1,1.48-.3,2.05-.2.57-.57,1.01-1.11,1.32-.54.31-1.38.47-2.52.47ZM631.63,794.56h16.94c1.31,0,2.54-.24,3.68-.72s2.14-1.21,2.99-2.18c.85-.97,1.54-2.17,2.05-3.59s.77-3.14.77-5.13c0-2.45-.44-4.53-1.33-6.24-.88-1.71-2.18-3.01-3.89-3.89-1.71-.88-3.82-1.32-6.33-1.32h-14.88v23.09ZM664.39,822.44c-1.2.8-2.21,1.05-3.04.77-.83-.29-1.61-.97-2.35-2.05l-13.68-21.89,8.47-1.28,11.8,18.81c.57.91.93,1.68,1.07,2.31.14.63.03,1.19-.34,1.71-.37.51-1.01,1.05-1.92,1.62Z"/>
    <path class="cls-2" d="M680.04,823.38c-.97,0-1.73-.17-2.27-.52-.54-.34-.91-.81-1.11-1.41-.2-.6-.3-1.3-.3-2.09v-52.09c0-.74.11-1.36.34-1.88.23-.52.64-.93,1.24-1.24.6-.31,1.44-.47,2.52-.47,1.25,0,2.14.11,2.65.34.52.23,1.03.63,1.54,1.2l32.16,45.5v-43.45c0-.74.1-1.36.3-1.88.2-.52.59-.93,1.15-1.24s1.4-.47,2.48-.47c1.02,0,1.81.17,2.35.51.54.35.91.82,1.11,1.42.2.6.3,1.27.3,2.01v51.82c0,.74-.13,1.41-.38,2.01-.25.6-.68,1.07-1.28,1.41-.6.35-1.44.52-2.52.52-.91,0-1.67-.11-2.27-.34-.6-.23-1.15-.66-1.67-1.28l-32.33-45.16v42.85c0,.74-.12,1.41-.34,2.01-.23.6-.63,1.07-1.2,1.41-.57.35-1.4.52-2.48.52Z"/>
    <path class="cls-2" d="M741.7,823.38c-1.14,0-1.98-.16-2.52-.47-.54-.31-.9-.77-1.07-1.37-.17-.6-.25-1.3-.25-2.09v-51.91c0-1.48.3-2.5.9-3.04.6-.54,1.67-.81,3.21-.81h34.38c.8,0,1.48.08,2.05.25s1,.54,1.28,1.12c.28.57.43,1.42.43,2.56s-.16,1.98-.47,2.52c-.31.54-.76.89-1.32,1.06-.57.18-1.25.26-2.05.26h-30.7v17.7h21.38c.8,0,1.47.08,2.01.26.54.17.95.51,1.24,1.02s.43,1.31.43,2.39c0,1.02-.14,1.79-.43,2.31s-.71.84-1.28.98c-.57.14-1.28.22-2.14.22h-21.21v19.32h30.79c.8,0,1.48.08,2.05.26.57.17,1,.53,1.28,1.06.28.54.43,1.39.43,2.52s-.16,1.98-.47,2.52-.76.9-1.32,1.07c-.57.17-1.25.25-2.05.25h-34.55Z"/>
    <path class="cls-2" d="M834.83,763.95c1.2.85,1.87,1.65,2.01,2.39.14.74-.16,1.62-.9,2.65l-20.1,30.53v20.09c0,.74-.08,1.42-.26,2.01-.17.6-.53,1.06-1.07,1.37-.54.31-1.38.47-2.52.47s-1.98-.16-2.52-.47c-.54-.31-.91-.78-1.11-1.41-.2-.63-.3-1.34-.3-2.14v-20.01l-20.18-30.27c-.68-1.03-.94-1.92-.77-2.69.17-.77.86-1.58,2.05-2.44.85-.57,1.58-.92,2.18-1.07.6-.14,1.15-.06,1.67.26.52.31,1,.87,1.45,1.66l17.45,27.37,17.53-27.37c.51-.8,1.01-1.34,1.49-1.62.48-.28,1.04-.38,1.67-.3.63.08,1.37.42,2.22.98Z"/>
    <path class="cls-2" d="M845.26,830.23c-.34-.11-.6-.3-.77-.55-.17-.26-.26-.7-.26-1.33,0-.91.13-1.48.38-1.71s.44-.34.55-.34c0-.06.31-.33.94-.82.63-.48,1-1.35,1.11-2.61-.46-.06-.86-.17-1.2-.34-.34-.17-.65-.4-.94-.68-.46-.4-.71-.92-.77-1.58s-.08-1.27-.08-1.84c0-.74.06-1.45.17-2.14s.48-1.24,1.11-1.67c.63-.42,1.71-.64,3.25-.64,1.71,0,2.91.35,3.59,1.02.4.4.64.92.73,1.54.08.63.13,1.28.13,1.97v.94c0,.29-.06.6-.17.94-.11,1.71-.54,3.32-1.28,4.83s-1.68,2.72-2.82,3.63-2.37,1.37-3.68,1.37Z"/>
    <path class="cls-2" d="M911.88,823.98c-4.05,0-7.85-.77-11.42-2.31s-6.7-3.69-9.41-6.46c-2.71-2.76-4.83-5.94-6.37-9.54-1.54-3.59-2.31-7.47-2.31-11.63s.74-8.2,2.22-11.93,3.55-7,6.2-9.79c2.65-2.8,5.72-4.99,9.19-6.59,3.48-1.59,7.18-2.39,11.12-2.39s7.94.77,11.5,2.31c3.56,1.54,6.67,3.7,9.32,6.46,2.65,2.77,4.75,6,6.29,9.71,1.54,3.71,2.31,7.67,2.31,11.89s-.76,8.05-2.26,11.68c-1.51,3.62-3.58,6.84-6.2,9.66-2.62,2.82-5.66,5.01-9.11,6.58s-7.14,2.35-11.07,2.35ZM911.37,816.2c2.96,0,5.74-.57,8.34-1.71,2.6-1.14,4.86-2.75,6.8-4.83,1.94-2.08,3.46-4.48,4.57-7.18s1.67-5.66,1.67-8.85-.55-5.97-1.67-8.68c-1.11-2.71-2.65-5.1-4.62-7.18-1.97-2.08-4.23-3.72-6.8-4.92-2.57-1.19-5.3-1.79-8.21-1.79s-5.64.6-8.21,1.79c-2.57,1.2-4.83,2.82-6.8,4.88-1.97,2.05-3.51,4.44-4.62,7.18-1.11,2.73-1.67,5.67-1.67,8.81s.55,5.99,1.67,8.72c1.11,2.74,2.65,5.13,4.62,7.18,1.97,2.05,4.22,3.67,6.76,4.83,2.54,1.17,5.26,1.75,8.17,1.75Z"/>
    <path class="cls-2" d="M973.12,823.64c-3.82,0-7.23-.67-10.22-2.01-2.99-1.34-5.53-3.22-7.61-5.64-2.08-2.42-3.66-5.3-4.75-8.64-1.08-3.33-1.62-6.97-1.62-10.9v-28.91c0-.8.1-1.48.3-2.05.2-.57.57-1.01,1.11-1.32.54-.31,1.38-.47,2.52-.47s2,.16,2.56.47c.57.31.94.76,1.11,1.32.17.57.26,1.28.26,2.14v28.82c0,3.82.63,7.18,1.88,10.09,1.25,2.9,3.1,5.2,5.56,6.88,2.45,1.68,5.5,2.52,9.15,2.52,3.42,0,6.36-.8,8.81-2.39,2.45-1.6,4.33-3.85,5.64-6.76s1.97-6.38,1.97-10.43v-29.34c0-.68.1-1.27.3-1.75.2-.48.58-.87,1.15-1.15.57-.28,1.42-.42,2.57-.42,1.08,0,1.89.16,2.44.47.54.31.9.76,1.07,1.32.17.57.25,1.28.25,2.14v28.99c0,3.99-.54,7.62-1.62,10.9-1.08,3.28-2.67,6.13-4.75,8.55-2.08,2.43-4.65,4.29-7.7,5.6s-6.51,1.96-10.39,1.96Z"/>
    <path class="cls-2" d="M1013.99,823.38c-1.08,0-1.91-.16-2.48-.47-.57-.31-.93-.77-1.07-1.37s-.21-1.3-.21-2.09v-51.99c0-.74.1-1.39.3-1.92.2-.54.57-.98,1.11-1.33.54-.34,1.36-.51,2.44-.51h18.9c2.79,0,5.34.41,7.65,1.24s4.32,2.04,6.03,3.63c1.71,1.6,3.04,3.61,3.98,6.03s1.41,5.23,1.41,8.42c0,2-.31,4.06-.94,6.2s-1.58,4.15-2.86,6.03c-1.28,1.88-2.92,3.45-4.92,4.7-2,1.26-4.42,1.97-7.27,2.14h-18.13v17.44c0,.8-.1,1.48-.3,2.05-.2.57-.57,1.01-1.11,1.32-.54.31-1.38.47-2.52.47ZM1017.93,794.56h16.94c1.31,0,2.54-.24,3.68-.72s2.14-1.21,2.99-2.18c.85-.97,1.54-2.17,2.05-3.59s.77-3.14.77-5.13c0-2.45-.44-4.53-1.33-6.24-.88-1.71-2.18-3.01-3.89-3.89-1.71-.88-3.82-1.32-6.33-1.32h-14.88v23.09ZM1050.68,822.44c-1.2.8-2.21,1.05-3.04.77-.83-.29-1.61-.97-2.35-2.05l-13.68-21.89,8.47-1.28,11.8,18.81c.57.91.93,1.68,1.07,2.31.14.63.03,1.19-.34,1.71-.37.51-1.01,1.05-1.92,1.62Z"/>
    <path class="cls-2" d="M1088.48,823.38c-1.08,0-1.9-.16-2.44-.47-.54-.31-.9-.77-1.07-1.37-.17-.6-.26-1.3-.26-2.09v-51.91c0-.74.1-1.4.3-1.97.2-.57.58-1.02,1.15-1.37.57-.34,1.37-.51,2.39-.51h18.73c2.74,0,5.26.41,7.57,1.24s4.33,2.08,6.07,3.76c1.74,1.68,3.09,3.72,4.06,6.11.97,2.39,1.45,5.16,1.45,8.3s-.49,5.81-1.45,8.21c-.97,2.39-2.34,4.4-4.1,6.03-1.77,1.62-3.81,2.86-6.12,3.72-2.31.85-4.83,1.28-7.57,1.28h-14.71v17.19c0,.8-.1,1.48-.3,2.05s-.57,1.01-1.11,1.32c-.54.31-1.41.47-2.61.47ZM1092.5,794.56h14.8c2.28,0,4.28-.44,5.99-1.32s3.05-2.2,4.02-3.93c.97-1.74,1.45-3.86,1.45-6.37s-.46-4.44-1.37-6.15c-.91-1.72-2.24-3.02-3.98-3.94-1.74-.91-3.8-1.36-6.2-1.36h-14.71v23.09Z"/>
    <path class="cls-2" d="M1188.63,817.91c.46.85.7,1.58.73,2.18.03.6-.16,1.14-.55,1.62-.4.49-1.03.93-1.88,1.33-1.37.62-2.44.77-3.21.42-.77-.34-1.47-1.17-2.1-2.48l-21.38-45.5-21.21,45.41c-.63,1.31-1.33,2.14-2.1,2.48-.77.35-1.87.2-3.29-.42-.85-.35-1.47-.77-1.84-1.28s-.51-1.14-.43-1.88.36-1.6.81-2.57l24.55-51.22c.34-.68.84-1.24,1.5-1.67.65-.42,1.35-.64,2.09-.64.51,0,1,.08,1.45.25.46.17.85.43,1.2.77.34.35.63.8.85,1.37l24.8,51.82ZM1144.16,806.36l2.91-6.58h26.51l2.82,6.58h-32.24Z"/>
    <path class="cls-2" d="M1213.6,824.24c-2.17,0-4.21-.25-6.11-.77-1.91-.51-3.65-1.21-5.22-2.09s-2.95-1.87-4.15-2.95-2.14-2.17-2.82-3.25c-.63-.91-1.02-1.67-1.2-2.27-.17-.6-.13-1.18.13-1.75.25-.57.78-1.19,1.58-1.88.91-.68,1.71-1.01,2.39-.98s1.32.3,1.92.82c.6.51,1.21,1.19,1.84,2.05,1.42,1.94,3.16,3.35,5.22,4.23,2.05.89,4.08,1.33,6.07,1.33,2.57,0,4.85-.35,6.84-1.03,2-.68,3.58-1.72,4.75-3.12s1.75-3.21,1.75-5.43c0-1.82-.46-3.36-1.37-4.62-.91-1.25-2.14-2.32-3.68-3.2s-3.25-1.65-5.13-2.31c-1.88-.66-3.79-1.3-5.73-1.92-1.54-.52-3.05-1.1-4.53-1.75s-2.88-1.4-4.19-2.22c-1.31-.83-2.47-1.81-3.46-2.95-1-1.14-1.77-2.48-2.31-4.02-.54-1.54-.81-3.33-.81-5.39,0-3.14.75-5.9,2.26-8.3s3.64-4.26,6.37-5.6,5.9-2.01,9.49-2.01c2.11,0,4.05.2,5.82.59,1.77.4,3.33.93,4.7,1.58,1.37.66,2.54,1.34,3.51,2.05.97.71,1.71,1.38,2.22,2.01,1.02,1.08,1.59,1.99,1.71,2.73.11.74-.31,1.65-1.28,2.74-.91,1.02-1.8,1.57-2.65,1.62s-1.8-.35-2.82-1.2c-1.08-1.25-2.21-2.22-3.38-2.91-1.17-.68-2.39-1.15-3.68-1.41-1.28-.25-2.69-.38-4.23-.38s-2.87.19-4.15.55c-1.28.37-2.39.93-3.33,1.67-.94.74-1.67,1.64-2.18,2.69s-.77,2.26-.77,3.63c0,1.54.41,2.85,1.24,3.93.83,1.09,1.92,2.01,3.29,2.78,1.37.77,2.91,1.45,4.62,2.05,1.71.6,3.51,1.18,5.39,1.75,2.05.63,4.08,1.38,6.07,2.26,2,.88,3.79,1.96,5.39,3.25,1.59,1.28,2.88,2.89,3.85,4.83.97,1.94,1.45,4.33,1.45,7.18s-.55,5.36-1.67,7.53-2.64,3.97-4.58,5.43-4.15,2.55-6.63,3.29c-2.48.74-5.09,1.11-7.83,1.11Z"/>
    <path class="cls-2" d="M1260.98,824.24c-2.17,0-4.21-.25-6.11-.77-1.91-.51-3.65-1.21-5.22-2.09s-2.95-1.87-4.15-2.95-2.14-2.17-2.82-3.25c-.63-.91-1.02-1.67-1.2-2.27-.17-.6-.13-1.18.13-1.75.25-.57.78-1.19,1.58-1.88.91-.68,1.71-1.01,2.39-.98s1.32.3,1.92.82c.6.51,1.21,1.19,1.84,2.05,1.42,1.94,3.16,3.35,5.22,4.23,2.05.89,4.08,1.33,6.07,1.33,2.57,0,4.85-.35,6.84-1.03,2-.68,3.58-1.72,4.75-3.12s1.75-3.21,1.75-5.43c0-1.82-.46-3.36-1.37-4.62-.91-1.25-2.14-2.32-3.68-3.2s-3.25-1.65-5.13-2.31c-1.88-.66-3.79-1.3-5.73-1.92-1.54-.52-3.05-1.1-4.53-1.75s-2.88-1.4-4.19-2.22c-1.31-.83-2.47-1.81-3.46-2.95-1-1.14-1.77-2.48-2.31-4.02-.54-1.54-.81-3.33-.81-5.39,0-3.14.75-5.9,2.26-8.3s3.64-4.26,6.37-5.6,5.9-2.01,9.49-2.01c2.11,0,4.05.2,5.82.59,1.77.4,3.33.93,4.7,1.58,1.37.66,2.54,1.34,3.51,2.05.97.71,1.71,1.38,2.22,2.01,1.02,1.08,1.59,1.99,1.71,2.73.11.74-.31,1.65-1.28,2.74-.91,1.02-1.8,1.57-2.65,1.62s-1.8-.35-2.82-1.2c-1.08-1.25-2.21-2.22-3.38-2.91-1.17-.68-2.39-1.15-3.68-1.41-1.28-.25-2.69-.38-4.23-.38s-2.87.19-4.15.55c-1.28.37-2.39.93-3.33,1.67-.94.74-1.67,1.64-2.18,2.69s-.77,2.26-.77,3.63c0,1.54.41,2.85,1.24,3.93.83,1.09,1.92,2.01,3.29,2.78,1.37.77,2.91,1.45,4.62,2.05,1.71.6,3.51,1.18,5.39,1.75,2.05.63,4.08,1.38,6.07,2.26,2,.88,3.79,1.96,5.39,3.25,1.59,1.28,2.88,2.89,3.85,4.83.97,1.94,1.45,4.33,1.45,7.18s-.55,5.36-1.67,7.53-2.64,3.97-4.58,5.43-4.15,2.55-6.63,3.29c-2.48.74-5.09,1.11-7.83,1.11Z"/>
    <path class="cls-2" d="M1294.42,823.38c-1.14,0-1.98-.16-2.52-.47-.54-.31-.9-.77-1.07-1.37-.17-.6-.25-1.3-.25-2.09v-51.91c0-.8.1-1.48.3-2.05.2-.57.57-1.01,1.11-1.32.54-.31,1.38-.47,2.52-.47s1.98.16,2.52.47c.54.31.88.76,1.03,1.32.14.57.21,1.28.21,2.14v51.91c0,.8-.08,1.48-.25,2.05-.17.57-.53,1.01-1.07,1.32-.54.31-1.38.47-2.52.47Z"/>
    <path class="cls-2" d="M1335.46,823.98c-4.05,0-7.85-.77-11.42-2.31s-6.7-3.69-9.41-6.46c-2.71-2.76-4.83-5.94-6.37-9.54-1.54-3.59-2.31-7.47-2.31-11.63s.74-8.2,2.22-11.93,3.55-7,6.2-9.79c2.65-2.8,5.72-4.99,9.19-6.59,3.48-1.59,7.18-2.39,11.12-2.39s7.94.77,11.5,2.31c3.56,1.54,6.67,3.7,9.32,6.46,2.65,2.77,4.75,6,6.29,9.71,1.54,3.71,2.31,7.67,2.31,11.89s-.76,8.05-2.26,11.68c-1.51,3.62-3.58,6.84-6.2,9.66-2.62,2.82-5.66,5.01-9.11,6.58s-7.14,2.35-11.07,2.35ZM1334.95,816.2c2.96,0,5.74-.57,8.34-1.71,2.6-1.14,4.86-2.75,6.8-4.83,1.94-2.08,3.46-4.48,4.57-7.18s1.67-5.66,1.67-8.85-.55-5.97-1.67-8.68c-1.11-2.71-2.65-5.1-4.62-7.18-1.97-2.08-4.23-3.72-6.8-4.92-2.57-1.19-5.3-1.79-8.21-1.79s-5.64.6-8.21,1.79c-2.57,1.2-4.83,2.82-6.8,4.88-1.97,2.05-3.51,4.44-4.62,7.18-1.11,2.73-1.67,5.67-1.67,8.81s.55,5.99,1.67,8.72c1.11,2.74,2.65,5.13,4.62,7.18,1.97,2.05,4.22,3.67,6.76,4.83,2.54,1.17,5.26,1.75,8.17,1.75Z"/>
    <path class="cls-2" d="M1375.57,823.38c-.97,0-1.73-.17-2.27-.52-.54-.34-.91-.81-1.11-1.41-.2-.6-.3-1.3-.3-2.09v-52.09c0-.74.11-1.36.34-1.88.23-.52.64-.93,1.24-1.24.6-.31,1.44-.47,2.52-.47,1.25,0,2.14.11,2.65.34.52.23,1.03.63,1.54,1.2l32.16,45.5v-43.45c0-.74.1-1.36.3-1.88.2-.52.59-.93,1.15-1.24s1.4-.47,2.48-.47c1.02,0,1.81.17,2.35.51.54.35.91.82,1.11,1.42.2.6.3,1.27.3,2.01v51.82c0,.74-.13,1.41-.38,2.01-.25.6-.68,1.07-1.28,1.41-.6.35-1.44.52-2.52.52-.91,0-1.67-.11-2.27-.34-.6-.23-1.15-.66-1.67-1.28l-32.33-45.16v42.85c0,.74-.12,1.41-.34,2.01-.23.6-.63,1.07-1.2,1.41-.57.35-1.4.52-2.48.52Z"/>
  </g>
  <g>
    <path class="cls-2" d="M859.11,343.65l1.8,8.63c-2.06-.33-4.17-.68-6.33-1.04l4.53-7.58Z"/>
    <path class="cls-2" d="M854.15,319.83l-16.73-80.36-57.55,97.66c-16.19-3.38-33.62-7.21-52.28-11.56l91.09-152.33c12.58-21.03,43.05-21.03,55.63,0l20.93,80.34h0l-41.11,66.25Z"/>
    <path class="cls-2" d="M900.64,274.21l60.38-100.97c12.58-21.03,43.05-21.03,55.63,0l192.22,321.45h-67.54s-149.86-255.22-149.86-255.22l-69.26,117.53-2.03,3.44s-20.82-1.9-59.28-8.17l-1.8-8.63,41.53-69.44Z"/>
    <path class="cls-2" d="M579.35,259.99l-9.99,23.31c-16.97-5.08-34.43-10.47-52.38-16.22h0l40.72-93.85c12.58-21.03,40.12-21.03,52.7,0l36.85,132.17c-19.27-5.16-39.41-10.79-60.37-16.92l-7.52-28.5Z"/>
    <path class="cls-2" d="M478.8,494.69h-60.56s74.57-171.89,74.57-171.89c19.33,7.55,37.11,13.82,51.66,18.62l-65.67,153.27Z"/>
    <path class="cls-2" d="M666.27,373.67l10.36,37.15,18.76-31.37c16.73,3.09,34.9,6.06,54.42,8.72l-53.96,91.58-2.12,3.6c-4.14,7.03-11.69,11.34-19.85,11.34h-14.86c-10.46,0-19.61-7.05-22.27-17.16h0s-31.25-118.45-31.25-118.45c15.97,4.27,36.38,9.43,60.78,14.6Z"/>
    <path class="cls-2" d="M293.89,160.85c10.09-107.13,215.99-90.76,215.99-90.76-101.31,16.88-179.41,52.06-179.41,84.43,0,32.36,36.79,66.69,113.98,99.91,21.99,9.46,44.26,18.22,66.6,26.33,17.27,6.28,34.58,12.16,51.83,17.68,9.69,3.1,19.35,6.09,28.98,8.96,20.44,6.11,40.71,11.73,60.64,16.88,22.66,5.86,44.88,11.12,66.4,15.85,18.15,3.99,35.8,7.6,52.81,10.87,26.88,5.16,52.15,9.47,75.2,13.05,5.8.9,11.46,1.76,16.97,2.57,17.94,2.65,34.3,4.83,48.75,6.64,4.99.62,9.74,1.2,14.26,1.73,25.3,2.99,43.06,4.66,50.85,5.55,37.2,4.22,77.83,10.03,77.83,10.03-43,5.07-83.92,7.61-122.46,8.3-12.12.22-24,.24-35.63.11l-19.85,33.69-36.55,62.03h-72.29s58.92-98.53,58.92-98.53c-27.88-1.94-53.91-4.72-77.91-7.99-19.51-2.66-37.69-5.63-54.42-8.72-10.25-1.9-19.97-3.83-29.12-5.77-24.41-5.17-44.81-10.32-60.78-14.6-13.12-3.51-23.26-6.43-30.18-8.26-6.53-1.73-17.28-4.92-30.85-9.39-14.54-4.79-32.33-11.06-51.66-18.62-87.05-34.02-205.32-94.02-198.92-161.95Z"/>
    <path class="cls-2" d="M866.38,8.92l-70.11,32.97c-.81.39-1.65.48-2.53.29-25.34-5.93-50.68-11.85-76.03-17.75-7.75-1.83-15.12-2.69-23.26.11-6.38,2.23-16.06,4.57-20.95,9.24-.67.64-1.02,1.42-1.05,2.35-.41,16.66,32.57,27.37,46.26,30.89,11.27,2.87,23.07,6.12,35.38,9.77l48.61,10.51c.9.19,1.57.7,2.01,1.53l8.21,15.47c.44.82,1.11,1.35,2.01,1.58l31.51,8.13c.59.17,1.21-.16,1.39-.76.08-.29.05-.6-.1-.86l-7.95-14.96c-.59-1.09-.28-1.51.95-1.26,18.92,4.22,37.8,8.62,56.66,13.21,8.36,2.04,16.44,3.07,24.25,3.09,25.84.06,51.62-1.32,77.33-4.13,6.15-.69,15.19-7.33,9.82-13.95-2.66-3.28-9.45-4.02-13.71-5.08-.37-.09-.59-.46-.49-.84.02-.08.06-.17.11-.24l21.56-29.38,3.07-4.4c.72-1.02.47-2.44-.55-3.16-.24-.17-.51-.29-.8-.36l-18.44-4.32c-2.22-.51-4.54-.15-6.47,1.03l-47.27,28.84c-1.06.65-2.18.83-3.37.56l-85.57-20.04c-.31-.08-.49-.39-.42-.69.03-.12.1-.23.2-.31,20.96-15.82,41.84-31.52,62.64-47.1.57-.43.88-1.52.92-3.25-14.7-4.45-27.04-8.31-36.37-3.32-7.08,3.77-12.9,5.96-17.45,6.58Z"/>
    <path class="cls-2" d="M932.59,78.49c-52.18-5.71-100.04-9.27-131.76-11.29l-.03,19.83c62.07,13.66,148.2,33.51,209.79,51.21,107.07,30.78,297.97,98.12,287.84,161.42-5.86,31.12-57.61,53.12-57.62,61.08,0,0,80.83-11.96,86.12-66.83,11.81-122.4-291.46-204.17-394.34-215.42Z"/>
  </g>
</svg>